# xmcd
#
# Track frame offsets: 
#        150
#        5710
#        33505
#        69905
#        91610
#        116667
#        147005
#        170465
#        180285
#        199805
#        220320
#        249232
#        250030
#        274617
#        276545
#
# Disc length: 3813 seconds
#
# Revision: 3
# Processed by: cddbd v1.5.2PL0 Copyright (c) Steve Scherf et al.
# Submitted via: ExactAudioCopy v0.99pb4
#
DISCID=cd0ee30f
DTITLE=Branford Marsalis - Buckshot LeFonque
DYEAR=1994
DGENRE=Jazz
TTITLE0=Ladies and Gentlemen, Presenting...
TTITLE1=The Blackwidow Blues
TTITLE2=I Know Why The Caged Bird Sings
TTITLE3=Mona Lisas (And Mad Hatters)
TTITLE4=Wonders and Signs
TTITLE5=Ain't It Funny
TTITLE6=Some Cow Fonque (More Tea, Vicar?)
TTITLE7=Some Shit @ 78 BPM (The Scratch Opera)
TTITLE8=Hotter Than Hot
TTITLE9=Blackwidow
TTITLE10=Breakfast @ Denny's
TTITLE11=Shoot The Piano Player
TTITLE12=No Pain, No Gain
TTITLE13=Sorry, Elton
TTITLE14=And We Out
EXTD=
EXTT0=
EXTT1=
EXTT2=
EXTT3=
EXTT4=
EXTT5=
EXTT6=
EXTT7=
EXTT8=
EXTT9=
EXTT10=
EXTT11=
EXTT12=
EXTT13=
EXTT14=
PLAYORDER=
